DataType=double
version=3
OpenSimVersion=4.5-2023-11-26-efcdfd3eb
endheader
time	EMG01_right_gast_med	EMG02_right_glut_max	EMG03_left_gast_med	EMG04_left_glut_max	EMG05_right_glut_med	EMG06_right_bic_fem	EMG07_right_rect_fem	EMG08_right_vast_lat	EMG09_right_vast_med	EMG10_right_tens_fasc_lat	EMG11_left_glut_med	EMG12_left_bic_fem	EMG13_left_rect_fem	EMG14_left_vast_lat	EMG15_left_vast_med	EMG16_left_tens_fasc_lat
0.6899999999999999	0.3920137079072537	0.03874631906610247	-0.01095873138428845	0.1587292600616339	0.02987226401798098	0.04072511491353804	0.06601101603937198	0.02369721424209941	0.03784164467484023	0.06076735989511201	0.04237159761603901	0.03672497226038856	0.01568283509087581	0.02152694527611354	0.005392914661306724	0.2239737136560289
0.7	0.4033640281096241	0.03451759110866206	-0.009037070867389604	0.1558326210359729	0.02902081912774515	0.04008846781969073	0.06493662738373468	0.02277110748546939	0.03559398312756838	0.05930663341392785	0.04399246479530822	0.03958281216926247	0.01671136418123973	0.0216304084018823	0.004852982662342914	0.2220022771427405
0.71	0.4135044913238164	0.03041153384411084	-0.006742020538586996	0.1524830977892011	0.02850400248854719	0.03983509417327868	0.06386660659289595	0.02194127938415135	0.03343133063545058	0.05818918636617163	0.04577778552743923	0.04260650246674366	0.01789121848541876	0.02198114109754137	0.004522199892630478	0.219325965580288
0.72	0.4223260775788378	0.02646829942135665	-0.004125730179803055	0.1487289374833416	0.02834931280998636	0.03992902320475162	0.06280618804565177	0.02120741790672522	0.03136511723498472	0.05745685987415568	0.04773675877729282	0.04578326993985427	0.0192176372478202	0.02260019788440965	0.004426548183267854	0.2160244267010378
0.73	0.429729697977608	0.02272783288833353	-0.001239691985180911	0.144621335236603	0.02858258573356959	0.04033059822850756	0.06176040902713324	0.02056827913363508	0.02940543681087807	0.05714670383154709	0.04987783684204573	0.04909835547862332	0.02068476807737211	0.02350614145823383	0.004590486225985194	0.2121880640880235
0.74	0.4356276975574417	0.01922955025555364	0.001865623422351403	0.1402136083907766	0.02922752859337177	0.0409972516849024	0.06073408003691703	0.02002176524568619	0.02756105001614304	0.05729029421823927	0.05220843175769472	0.05253499636324149	0.02228558632775218	0.0247145641298424	0.005036526785362348	0.2079169906606427
0.75	0.4399452921630762	0.0160120178497053	0.005141082722604913	0.1355603762967658	0.03030521218508874	0.04188431436117348	0.05973174547253022	0.01956500691545444	0.02583939201549817	0.05791313894008149	0.05473462985560724	0.05607442716617303	0.02401183132184937	0.02623763592124353	0.005784829463101822	0.2033197922673255
0.76	0.4426219023444608	0.01311263214104583	0.008539161963375428	0.1307167561465523	0.03183353066562177	0.042945845227731	0.05875763675134195	0.01919444957599713	0.02424658352131042	0.05903417904280413	0.05746092097245184	0.05969590141047939	0.02585396397423624	0.02808368972365009	0.006852814223501225	0.1985120907744926
0.77	0.4436123338700483	0.01056729925426122	0.01201418018815273	0.1257375835986167	0.03382664297395196	0.04413546741236726	0.05781562098762187	0.01890594306613989	0.02278744376253038	0.06066539056972663	0.06038994884242423	0.06337673629857359	0.02780115006040601	0.03025685344299348	0.008254800932825187	0.1936149059966338
0.78	0.442887750084449	0.008410113333677187	0.0155225002597025	0.1206766659451836	0.03629441061698926	0.04540719510513231	0.05690914788158856	0.01869483368096369	0.02146550417795161	0.06281149108089784	0.06352228897762266	0.06709238318764352	0.02984127285810918	0.03275673846447816	0.01000168024803881	0.1887528273691926
0.79	0.4404363912652766	0.006673032922075045	0.01902270268139054	0.1155860755730141	0.03924184748466058	0.04671623554940114	0.05604119629265875	0.01855605701266923	0.02028302208631301	0.06546975359258719	0.06685625945553308	0.07081652722885022	0.03196097814738418	0.0355781930719247	0.01210062125010295	0.1840520180852559
0.8	0.4362640163960472	0.005385554667595786	0.02247573817731362	0.1105154923887935	0.04266859798904165	0.0480197498343618	0.05521422071329923	0.01848422937102613	0.01924099424246615	0.06862992914547671	0.07038776842785761	0.07452122054299547	0.03414575360083465	0.03871112862915609	0.01455482115694174	0.1796380854378903
0.8100000000000001	0.4303940617541063	0.00457438405081623	0.02584506462935479	0.1055116052330547	0.04656846056926506	0.04927755621841765	0.05443009688549797	0.01847373508762702	0.01833917080483627	0.07227427767980533	0.0741102003986908	0.07817705383243939	0.03638004340932278	0.04214042528633614	0.01736330220245855	0.1756338601401218
0.82	0.4228675192836299	0.00426310343754211	0.02909677380045427	0.1006175830152906	0.05092897422609726	0.05045276041049331	0.05369006555901502	0.01851880667906548	0.01757607075051894	0.07637770600282213	0.07801434209446742	0.08175337079794237	0.03864739763834138	0.0458459226624133	0.0205207603324269	0.1721571342582203
0.83	0.4137425365016692	0.004471838625937726	0.03219971315428891	0.09587262552663818	0.05573108565147497	0.05151229897248547	0.05299467419638474	0.01861359480811067	0.01694900017499506	0.08090801137806174	0.08208834828103942	0.08521852814878646	0.04093065446389133	0.04980249948913087	0.02401746979961267	0.1693184121511587
0.84	0.4030937372584183	0.005216926070503493	0.03512560793840709	0.09131160183422492	0.06094891344292389	0.05242738506918193	0.0523437179776366	0.01875222543714819	0.01645407513273636	0.08582622900828873	0.08631774788100813	0.0885402018788676	0.04321215221484438	0.05398024474199196	0.02783924711196899	0.167218730820278
0.85	0.3910112677794113	0.006510583930002992	0.03784918839349023	0.08696478143804662	0.06654962413892322	0.0531738496300656	0.05173618309708452	0.01892884258603207	0.01608625069072863	0.09108708098985863	0.09068549084216683	0.09168573832833818	0.04547396697970122	0.05834472128212542	0.03196747714649561	0.1659476052174328
0.86	0.3775995858721652	0.008360590949806174	0.04034832642810998	0.08285766017615646	0.07249343278127354	0.05373237443328954	0.05117019664164686	0.01913763647104341	0.01583935778271925	0.09663952317112816	0.09517203618708789	0.09462254663106365	0.04769817022233289	0.06285732128944116	0.03637920355438694	0.1655811512115573
0.87	0.3629760254161516	0.01076997813473998	0.04260418538182066	0.07901087935950692	0.07873373856780706	0.05408861635985496	0.05064298809887902	0.01937285813374268	0.01570614937757718	0.1024273847376938	0.09975548140794664	0.09731852751629486	0.04986709932526761	0.06747571070404101	0.04104728475455835	0.1661804346407423
0.88	0.3472691757809465	0.01373673931784995	0.04460138557441045	0.07544023338481864	0.08521740387624627	0.0542332249731159	0.05015086761915392	0.01962882270894451	0.0156783574008856	0.1083900932797768	0.1044117330035069	0.09974253215150085	0.05196363245801747	0.07215435759615738	0.04594061578332486	0.1677900890669255
0.89	0.3306171157964898	0.01725356790200106	0.04632818713856025	0.07215675871162609	0.09188518242258287	0.05416175925737064	0.04968922546335672	0.01989990416172921	0.0157467616563157	0.1144634758894005	0.1091147180229766	0.1018648441472183	0.05397145808067125	0.07684513699318533	0.05102441507892539	0.1704372375853333
0.9	0.3131655376926966	0.02130762797042488	0.04777669017055852	0.06916689571572915	0.09867229946311608	0.05387451317167889	0.04925255567538765	0.02018052464717037	0.01590127157080845	0.1205806249407974	0.1138366371860384	0.1036576782399789	0.05587532914474112	0.0814980025047098	0.05626057406936352	0.1741307458459327
0.91	0.2950657907760753	0.02588036855241925	0.04894305063670766	0.06647271421562288	0.1055091836938626	0.05337626253034741	0.04883450524424477	0.02046514168140974	0.01613102095199424	0.1266728157364497	0.1185482606628843	0.1050956898181299	0.05766129273276299	0.08606171360762209	0.06160806641368527	0.178860824809938
0.92	0.2764728696752549	0.03094739014361321	0.04982770883376295	0.06407219290197586	0.1123223467908321	0.05267594711201096	0.0484279483439275	0.02074823624847608	0.01642447526187444	0.1326704617493789	0.1232192669753906	0.1061564889502035	0.05931688724111071	0.09048460692395796	0.06702341304287832	0.1845989930077189
0.93	0.2575433706608504	0.03647837264358295	0.05043562548041328	0.06195954218110478	0.119035402256371	0.05178630214517133	0.04802508406587139	0.02102430496391309	0.01676955039218737	0.1385040913658233	0.1278186239200892	0.1068211501694032	0.06083130111077407	0.09471539975961527	0.0724611985146864	0.1912983995425785
0.9399999999999999	0.2384334431342479	0.04243707373372999	0.05077651865882231	0.06012555935264025	0.1255702102759641	0.05072345298983316	0.04761755561182505	0.02128785940128154	0.01715374170014111	0.1441053282127898	0.1323150086183083	0.1070747055653219	0.06219548969867082	0.09870401368881697	0.07787463313917875	0.1988945011712291
0.95	0.2192967695242458	0.04878140642175989	0.05086509290808848	0.05855800514048538	0.1318481296937642	0.04950648615886609	0.04719658922565882	0.0215334354597345	0.0175642620851442	0.1494078562050078	0.1366772615904399	0.1069066048423672	0.06340225006670608	0.1024024045380403	0.08321615365220711	0.207306079612452
0.96	0.2002826117601969	0.0554636039467208	0.05072124998023968	0.05724199150741646	0.1377913522680492	0.04815700867619745	0.04675315190218444	0.02175561515272238	0.01798818802456858	0.1543483503089884	0.1408748664608321	0.1063111224066321	0.0644462564681061	0.1057653829033093	0.08843805324652834	0.2164365785398792
0.97	0.1815339639894413	0.06243047934584312	0.05037026927596251	0.05616037205140085	0.1433242885429857	0.04669870609837334	0.04627812745996583	0.02194906254919953	0.01841261265705601	0.1588673533145237	0.1448784428155778	0.1052876884675627	0.06532406118873568	0.1087514069159781	0.09349312997598432	0.2261757330217636
0.98	0.1631858490770634	0.06962378573014594	0.04984294486579679	0.05529412772092174	0.1483749694791335	0.04515690755196502	0.04576251030739906	0.02210857492210093	0.01882480514392148	0.162910076531759	0.1486602361448072	0.103841120064931	0.06603406592891223	0.1113233268393883	0.0983353410660508	0.2364014570416823
0.99	0.1453637916986537	0.07698068175672919	0.04917566531558851	0.05462274186390344	0.152876423827492	0.04355816427864414	0.04519761507339151	0.02222914949323522	0.01921237551961582	0.1664270994862961	0.1521945867231641	0.1019817314218508	0.06657646862086933	0.1134490593790359	0.1029204492684639	0.246981946856587
1	0.1281824947595983	0.08443430488499482	0.04841042245053765	0.0541245597316428	0.1567679886371245	0.04192984689524344	0.04457529864164819	0.02230606548862185	0.01956344397773494	0.1693749442493419	0.1554583590939133	0.09972531185518729	0.06695319005452791	0.1151021687031208	0.1072066458172276	0.2577779491778854
1.01	0.1117447392063124	0.09191445268415648	0.04759473605516755	0.05377712870460226	0.1599965101755334	0.04029976606600784	0.04388818970016425	0.02233498047927114	0.0198668131465354	0.1717165080207085	0.1584313158123525	0.09709297068768	0.06716778414359227	0.1162623324067378	0.1111551329489615	0.2686451342411423
1.02	0.09614052040624756	0.09934836975417657	0.04678148349767286	0.05355751682773865	0.1625173956613332	0.03869582123495004	0.04312992022915541	0.02231203912606237	0.0201121415611732	0.1734213525041595	0.1610964230244655	0.09411085783536409	0.06722533512679084	0.1169156755089674	0.1147306482176331	0.2794365070439315
1.03	0.08144642743871294	0.1066616348352197	0.04602862607234626	0.0534426086194337	0.1642954823913998	0.03714568189766131	0.04229535336764166	0.02223399147374944	0.0202901162403638	0.1744658643481284	0.1634400798281507	0.09080977393156568	0.06713234455898633	0.1170549635742347	0.1179019142064895	0.2900047879130057
1.04	0.06772526512590281	0.113779139394995	0.04539882671187939	0.05340937827379867	0.1653056993507257	0.03567650525814056	0.04138080232413944	0.02209831692734581	0.02039262188092861	0.1748333108245611	0.1654522665213849	0.08722468578242518	0.0668966107374173	0.1166796540623846	0.1206420015946254	0.3002046970640167
1.05	0.05502591277352799	0.1206261452578483	0.04495895581577766	0.05343514104204747	0.165533506355356	0.03431469306786218	0.04038423516005983	0.02190334911164509	0.02041290359971829	0.1745138172342908	0.1671266083280236	0.08339416331014796	0.06652710319883012	0.1157958101555615	0.1229286006535823	0.3098950867933747
